<?xml version="1.0" standalone="no"?>
<!DOCTYPE svg PUBLIC "-//W3C//DTD SVG 20010904//EN"
 "http://www.w3.org/TR/2001/REC-SVG-20010904/DTD/svg10.dtd">
<svg version="1.0" xmlns="http://www.w3.org/2000/svg"
 width="770.000000pt" height="977.000000pt" viewBox="0 0 770.000000 977.000000"
 preserveAspectRatio="xMidYMid meet">

<g transform="translate(0.000000,977.000000) scale(0.100000,-0.100000)"
fill="#000000" stroke="none">
<path d="M2949 9760 c-111 -33 -166 -171 -111 -277 67 -129 255 -137 333 -15
53 84 35 202 -41 260 -50 38 -121 51 -181 32z"/>
<path d="M4572 9749 c-53 -26 -87 -70 -103 -131 -32 -117 64 -237 189 -238 55
0 99 19 139 61 39 42 53 77 53 134 0 55 -14 92 -48 129 -60 64 -154 82 -230
45z"/>
<path d="M1527 8910 c-57 -15 -108 -44 -149 -87 -118 -122 -109 -320 18 -432
56 -49 118 -71 204 -71 54 0 78 6 128 31 103 51 153 129 160 250 4 67 1 83
-23 138 -31 68 -85 123 -149 151 -51 23 -139 32 -189 20z"/>
<path d="M2939 8907 c-223 -63 -303 -319 -153 -487 62 -68 111 -92 200 -98
130 -8 233 49 292 163 36 69 38 187 4 256 -63 128 -215 202 -343 166z"/>
<path d="M4580 8905 c-70 -20 -127 -60 -167 -119 -135 -198 2 -466 238 -466
87 0 148 22 208 76 126 113 130 313 8 432 -78 76 -185 105 -287 77z"/>
<path d="M5960 8907 c-172 -49 -263 -222 -206 -393 55 -165 254 -243 414 -163
69 34 104 71 138 144 29 60 32 158 8 228 -46 135 -216 223 -354 184z"/>
<path d="M2861 7854 c-99 -27 -182 -74 -257 -149 -322 -321 -169 -859 276
-971 86 -22 231 -14 317 16 191 67 336 235 379 440 61 288 -130 589 -422 665
-73 19 -221 18 -293 -1z"/>
<path d="M4473 7842 c-404 -137 -524 -651 -222 -953 119 -119 275 -177 447
-166 154 10 273 67 382 183 103 111 153 238 153 394 0 257 -180 490 -429 555
-97 25 -234 20 -331 -13z"/>
<path d="M1527 7590 c-57 -15 -108 -44 -149 -87 -118 -122 -109 -320 18 -432
56 -49 118 -71 204 -71 54 0 78 6 128 31 103 51 153 129 160 250 4 67 1 83
-23 138 -58 129 -205 204 -338 171z"/>
<path d="M5967 7590 c-134 -34 -229 -151 -230 -284 -1 -126 56 -221 165 -275
198 -99 428 40 428 260 0 85 -22 147 -71 203 -70 79 -195 120 -292 96z"/>
<path d="M620 7474 c-52 -23 -88 -61 -106 -116 -53 -160 109 -308 261 -239
111 50 150 187 82 290 -47 71 -155 101 -237 65z"/>
<path d="M6925 7476 c-38 -17 -90 -72 -104 -109 -51 -136 65 -283 207 -263
152 21 222 201 125 317 -52 61 -157 87 -228 55z"/>
<path d="M2913 6270 c-179 -32 -344 -156 -420 -315 -112 -237 -66 -496 121
-672 232 -220 576 -216 802 11 116 115 168 242 168 406 0 253 -161 474 -400
549 -74 23 -201 33 -271 21z"/>
<path d="M4585 6273 c-126 -17 -239 -75 -335 -172 -159 -160 -210 -380 -137
-590 141 -405 648 -520 953 -217 112 112 165 240 167 401 1 100 -15 169 -61
265 -102 210 -353 344 -587 313z"/>
<path d="M1503 5986 c-125 -41 -207 -156 -207 -291 1 -203 203 -345 397 -279
57 19 141 92 169 148 29 57 36 167 14 234 -23 69 -91 143 -158 172 -65 28
-158 35 -215 16z"/>
<path d="M5960 5991 c-138 -45 -223 -157 -223 -293 0 -56 6 -79 32 -132 110
-224 431 -219 537 8 32 68 33 180 3 246 -45 101 -145 168 -257 175 -37 3 -78
1 -92 -4z"/>
<path d="M615 5876 c-43 -18 -92 -78 -105 -127 -20 -73 3 -143 64 -197 125
-109 316 -20 316 148 0 113 -79 190 -192 190 -29 -1 -67 -7 -83 -14z"/>
<path d="M6907 5869 c-114 -60 -129 -243 -26 -322 102 -76 238 -46 293 65 14
28 26 68 26 87 -1 71 -59 156 -123 180 -45 17 -128 12 -170 -10z"/>
<path d="M1488 4461 c-98 -39 -157 -106 -184 -211 -34 -135 34 -278 165 -342
69 -34 187 -32 257 4 188 98 222 346 68 487 -86 79 -202 102 -306 62z"/>
<path d="M2930 4471 c-86 -28 -150 -82 -191 -161 -34 -64 -34 -196 -1 -257 35
-66 79 -110 140 -140 47 -23 70 -28 132 -28 174 0 295 121 295 295 0 168 -114
289 -280 296 -38 2 -81 0 -95 -5z"/>
<path d="M4580 4471 c-182 -56 -271 -250 -191 -416 55 -114 143 -170 271 -170
91 0 149 24 210 85 60 60 84 119 84 210 1 63 -4 84 -27 132 -34 69 -91 121
-164 148 -54 20 -136 25 -183 11z"/>
<path d="M5923 4459 c-151 -58 -228 -246 -163 -397 31 -72 110 -143 185 -167
142 -44 302 28 364 165 30 66 29 178 -3 245 -66 143 -236 211 -383 154z"/>
<path d="M2925 3563 c-99 -52 -138 -167 -89 -264 28 -55 113 -109 174 -109 65
0 152 58 176 117 29 67 13 162 -35 217 -46 53 -162 73 -226 39z"/>
<path d="M4575 3566 c-58 -25 -115 -112 -115 -176 0 -61 53 -146 109 -175 131
-67 281 27 281 175 0 113 -79 190 -192 190 -29 -1 -67 -7 -83 -14z"/>
<path d="M2395 2254 c-256 -54 -413 -209 -447 -442 -40 -277 116 -516 387
-593 65 -18 254 -18 320 0 76 21 177 77 221 122 l39 41 -75 68 -74 68 -39 -33
c-72 -62 -121 -80 -222 -80 -78 0 -97 4 -147 28 -65 32 -121 89 -152 156 -17
37 -21 65 -21 141 0 84 3 102 28 152 32 65 89 121 156 152 36 16 65 21 136 21
101 0 149 -17 221 -79 l39 -33 75 68 75 68 -39 40 c-51 53 -159 108 -243 126
-63 14 -192 18 -238 9z"/>
<path d="M10 2145 l0 -95 165 0 165 0 0 -415 0 -415 115 0 115 0 0 415 0 415
165 0 165 0 0 95 0 95 -445 0 -445 0 0 -95z"/>
<path d="M1020 1730 l0 -510 395 0 395 0 0 95 0 95 -280 0 -280 0 0 120 0 120
240 0 240 0 0 90 0 90 -240 0 -240 0 0 110 0 110 270 0 270 0 0 95 0 95 -385
0 -385 0 0 -510z"/>
<path d="M3070 1730 l0 -510 115 0 115 0 0 210 0 210 235 0 235 0 0 -210 0
-210 115 0 115 0 0 510 0 510 -115 0 -115 0 0 -200 0 -200 -235 0 -235 0 0
200 0 200 -115 0 -115 0 0 -510z"/>
<path d="M4240 1730 l0 -510 110 0 110 0 2 297 3 296 146 -239 146 -239 58 0
58 0 146 245 146 244 3 -302 2 -302 110 0 110 0 0 510 0 510 -98 0 -97 0 -185
-311 c-101 -170 -186 -312 -189 -313 -3 -2 -91 137 -195 310 l-189 314 -99 0
-98 0 0 -510z"/>
<path d="M5941 2198 c-10 -24 -111 -251 -225 -505 -113 -254 -206 -465 -206
-468 0 -3 53 -5 119 -5 l118 0 44 108 44 107 239 0 239 0 45 -107 45 -108 123
0 123 0 -12 28 c-7 15 -109 245 -227 510 l-215 482 -118 0 -118 0 -18 -42z
m217 -387 c40 -95 72 -177 72 -182 0 -5 -70 -9 -155 -9 -85 0 -155 4 -155 8 0
5 32 85 71 178 39 93 73 175 76 182 9 21 15 8 91 -177z"/>
<path d="M6750 1730 l0 -510 115 0 115 0 0 140 0 140 143 0 c167 0 253 16 338
61 71 38 112 83 148 159 22 47 26 69 26 150 0 88 -3 101 -33 162 -35 72 -83
118 -161 158 -81 41 -158 50 -433 50 l-258 0 0 -510z m510 309 c88 -20 140
-83 140 -169 0 -86 -52 -149 -140 -169 -25 -6 -98 -11 -162 -11 l-118 0 0 180
0 180 118 0 c64 0 137 -5 162 -11z"/>
<path d="M1200 510 l0 -290 30 0 30 0 0 290 0 290 -30 0 -30 0 0 -290z"/>
<path d="M1450 510 l0 -290 30 0 30 0 2 233 3 234 183 -234 c150 -190 188
-233 208 -233 l24 0 0 290 0 290 -30 0 -30 0 -2 -233 -3 -234 -184 234 c-148
188 -188 233 -207 233 l-24 0 0 -290z"/>
<path d="M2040 775 l0 -25 100 0 100 0 0 -265 0 -265 30 0 30 0 0 265 0 265
100 0 100 0 0 25 0 25 -230 0 -230 0 0 -25z"/>
<path d="M2610 510 l0 -290 205 0 205 0 0 25 0 25 -175 0 -175 0 0 110 0 110
150 0 150 0 0 25 0 25 -150 0 -150 0 0 105 0 105 170 0 170 0 0 25 0 25 -200
0 -200 0 0 -290z"/>
<path d="M3333 790 c-90 -19 -175 -87 -211 -169 -25 -57 -22 -175 6 -233 28
-56 88 -113 151 -141 86 -39 247 -25 328 29 22 14 23 21 23 124 l0 110 -30 0
-30 0 0 -98 0 -98 -35 -17 c-128 -61 -301 -4 -356 118 -24 52 -24 138 0 190
42 92 124 139 241 140 64 0 82 -4 127 -29 44 -24 55 -27 68 -16 14 12 13 15
-6 36 -43 46 -184 74 -276 54z"/>
<path d="M3810 511 l0 -291 30 0 30 0 0 95 0 95 103 0 102 -1 64 -94 c56 -82
68 -95 93 -95 15 0 28 3 28 6 0 3 -29 48 -65 99 -36 52 -65 96 -65 98 0 3 11
8 24 11 33 8 83 67 97 115 15 50 5 120 -24 163 -12 18 -44 44 -72 58 -45 22
-65 25 -197 28 l-148 4 0 -291z m283 228 c63 -17 99 -57 104 -116 7 -70 -16
-116 -71 -143 -35 -16 -62 -20 -149 -20 l-107 0 0 145 0 145 93 0 c50 0 109
-5 130 -11z"/>
<path d="M4550 738 c-15 -35 -75 -165 -133 -290 l-105 -228 30 0 c27 0 32 6
66 80 l36 80 165 -2 165 -3 32 -75 c30 -69 35 -75 64 -78 18 -2 31 1 29 6 -2
5 -62 136 -133 291 -126 273 -130 281 -158 281 -26 0 -32 -7 -58 -62z m134
-165 l65 -143 -141 0 c-114 0 -139 3 -135 14 32 82 132 285 138 279 4 -4 37
-72 73 -150z"/>
<path d="M4890 775 l0 -25 100 0 100 0 0 -265 0 -265 30 0 30 0 0 265 0 265
100 0 100 0 0 25 0 25 -230 0 -230 0 0 -25z"/>
<path d="M5460 510 l0 -290 205 0 205 0 0 25 0 25 -175 0 -175 0 0 110 0 110
150 0 150 0 0 25 0 25 -150 0 -150 0 0 105 0 105 170 0 170 0 0 25 0 25 -200
0 -200 0 0 -290z"/>
<path d="M6010 510 l0 -292 158 3 c155 4 158 4 225 37 99 49 157 142 157 252
0 110 -58 203 -157 252 -67 33 -70 33 -225 37 l-158 3 0 -292z m319 224 c165
-49 218 -268 95 -391 -56 -55 -116 -73 -251 -73 l-103 0 0 240 0 240 103 0
c65 0 123 -6 156 -16z"/>
</g>
</svg>
